<?xml version="1.0" encoding="UTF-8" standalone="no"?>
<!-- Created with Inkscape (http://www.inkscape.org/) -->

<svg
   xmlns:dc="http://purl.org/dc/elements/1.1/"
   xmlns:cc="http://creativecommons.org/ns#"
   xmlns:rdf="http://www.w3.org/1999/02/22-rdf-syntax-ns#"
   xmlns:svg="http://www.w3.org/2000/svg"
   xmlns="http://www.w3.org/2000/svg"
   xmlns:xlink="http://www.w3.org/1999/xlink"
   xmlns:sodipodi="http://sodipodi.sourceforge.net/DTD/sodipodi-0.dtd"
   xmlns:inkscape="http://www.inkscape.org/namespaces/inkscape"
   width="210mm"
   height="297mm"
   viewBox="0 0 210 297"
   version="1.1"
   id="svg8"
   inkscape:version="0.92.5 (2060ec1f9f, 2020-04-08)"
   sodipodi:docname="logo4.svg">
  <defs
     id="defs2">
    <linearGradient
       inkscape:collect="always"
       id="linearGradient117">
      <stop
         style="stop-color:#808080;stop-opacity:1;"
         offset="0"
         id="stop113" />
      <stop
         style="stop-color:#808080;stop-opacity:0;"
         offset="1"
         id="stop115" />
    </linearGradient>
    <linearGradient
       inkscape:collect="always"
       xlink:href="#linearGradient117"
       id="linearGradient119"
       x1="21.381561"
       y1="83.718918"
       x2="8.0180855"
       y2="41.49033"
       gradientUnits="userSpaceOnUse"
       gradientTransform="translate(33.141408,85.793514)" />
  </defs>
  <sodipodi:namedview
     id="base"
     pagecolor="#ffffff"
     bordercolor="#666666"
     borderopacity="1.0"
     inkscape:pageopacity="0.0"
     inkscape:pageshadow="2"
     inkscape:zoom="1"
     inkscape:cx="446.55885"
     inkscape:cy="563.17025"
     inkscape:document-units="mm"
     inkscape:current-layer="layer1"
     showgrid="false"
     inkscape:window-width="1366"
     inkscape:window-height="743"
     inkscape:window-x="0"
     inkscape:window-y="0"
     inkscape:window-maximized="1" />
  <metadata
     id="metadata5">
    <rdf:RDF>
      <cc:Work
         rdf:about="">
        <dc:format>image/svg+xml</dc:format>
        <dc:type
           rdf:resource="http://purl.org/dc/dcmitype/StillImage" />
        <dc:title></dc:title>
      </cc:Work>
    </rdf:RDF>
  </metadata>
  <g
     inkscape:label="Camada 1"
     inkscape:groupmode="layer"
     id="layer1">
    <rect
       style="fill:#00ff00;stroke-width:0.26458332"
       id="rect50-7"
       width="154.48178"
       height="74.835464"
       x="12.828934"
       y="92.271545" />
    <rect
       style="fill:#f9f9f9;stroke-width:0.26458332"
       id="rect50-0"
       width="154.48178"
       height="74.835464"
       x="11.241434"
       y="90.684044" />
    <text
       xml:space="preserve"
       style="font-style:normal;font-weight:normal;font-size:50.79999924px;line-height:1.25;font-family:sans-serif;letter-spacing:0px;word-spacing:0px;fill:#00ff00;fill-opacity:1;stroke:none;stroke-width:0.26458332"
       x="75.085228"
       y="144.25769"
       id="text323"><tspan
         sodipodi:role="line"
         x="75.085228"
         y="144.25769"
         id="tspan321"
         style="stroke-width:0.26458332"><tspan
           x="75.085228"
           y="144.25769"
           style="font-style:normal;font-variant:normal;font-weight:bold;font-stretch:normal;font-family:sans-serif;-inkscape-font-specification:'sans-serif Bold';fill:#00ff00;stroke-width:0.26458332"
           id="tspan319">JLS</tspan></tspan></text>
    <path
       sodipodi:type="spiral"
       style="fill:#00ff00;fill-rule:evenodd;stroke:#000000;stroke-width:0.26458332"
       id="path96-2"
       sodipodi:cx="37.417732"
       sodipodi:cy="48.7066"
       sodipodi:expansion="1"
       sodipodi:revolution="3"
       sodipodi:radius="31.758999"
       sodipodi:argument="-20.538445"
       sodipodi:t0="0"
       d="m 37.417732,48.7066 c -0.187607,-1.581255 2.038942,-1.033026 2.628151,-0.311815 1.596718,1.954437 -0.04519,4.678377 -2.004521,5.568116 -3.504781,1.591534 -7.358997,-0.935181 -8.508081,-4.320856 -1.686327,-4.968614 1.825126,-10.08553 6.637191,-11.448046 6.413726,-1.81602 12.829613,2.713465 14.388012,8.953526 1.961085,7.852479 -3.600653,15.582366 -11.269861,17.327977 C 30.000184,66.589671 20.948559,59.988388 19.02068,50.889306 16.748741,40.166352 24.393789,29.788452 34.923211,27.681397 47.079846,25.24872 58.786919,33.940192 61.071085,45.900264 63.6665,59.490058 53.92682,72.528272 40.535883,74.988104 25.513276,77.747663 11.142522,66.958521 8.5080785,52.136566 5.5833469,35.681387 17.422866,19.977061 33.675951,17.168796"
       transform="rotate(136.5839,21.329039,90.73426)" />
    <path
       sodipodi:type="spiral"
       style="fill:#1a1a1a;fill-rule:evenodd;stroke:#000000;stroke-width:0.26458332"
       id="path96-7-6"
       sodipodi:cx="37.417732"
       sodipodi:cy="48.7066"
       sodipodi:expansion="1"
       sodipodi:revolution="3"
       sodipodi:radius="31.758999"
       sodipodi:argument="-20.538445"
       sodipodi:t0="0"
       d="m 37.417732,48.7066 c -0.187607,-1.581255 2.038942,-1.033026 2.628151,-0.311815 1.596718,1.954437 -0.04519,4.678377 -2.004521,5.568116 -3.504781,1.591534 -7.358997,-0.935181 -8.508081,-4.320856 -1.686327,-4.968614 1.825126,-10.08553 6.637191,-11.448046 6.413726,-1.81602 12.829613,2.713465 14.388012,8.953526 1.961085,7.852479 -3.600653,15.582366 -11.269861,17.327977 C 30.000184,66.589671 20.948559,59.988388 19.02068,50.889306 16.748741,40.166352 24.393789,29.788452 34.923211,27.681397 47.079846,25.24872 58.786919,33.940192 61.071085,45.900264 63.6665,59.490058 53.92682,72.528272 40.535883,74.988104 25.513276,77.747663 11.142522,66.958521 8.5080785,52.136566 5.5833469,35.681387 17.422866,19.977061 33.675951,17.168796"
       transform="rotate(136.5839,21.010541,89.994426)" />
    <text
       xml:space="preserve"
       style="font-style:normal;font-weight:normal;font-size:50.79999924px;line-height:1.25;font-family:sans-serif;letter-spacing:0px;word-spacing:0px;fill:#1a1a1a;fill-opacity:1;stroke:none;stroke-width:0.26458332"
       x="73.922104"
       y="143.0208"
       id="text323-2"><tspan
         sodipodi:role="line"
         x="73.922104"
         y="143.0208"
         id="tspan321-0"
         style="fill:#1a1a1a;stroke-width:0.26458332"><tspan
           x="73.922104"
           y="143.0208"
           style="font-style:normal;font-variant:normal;font-weight:bold;font-stretch:normal;font-family:sans-serif;-inkscape-font-specification:'sans-serif Bold';fill:#1a1a1a;stroke-width:0.26458332"
           id="tspan319-2">JLS</tspan></tspan></text>
  </g>
</svg>
